<svg height="512pt" viewBox="0 0 512 512" width="512pt" xmlns="http://www.w3.org/2000/svg"><path d="m241 286h30v60h-30zm0 0" fill="#68544f"/><path d="m241 0h30v46h-30zm0 0" fill="#68544f"/><path d="m256 0h15v46h-15zm0 0" fill="#53433f"/><path d="m256 286h15v60h-15zm0 0" fill="#53433f"/><path d="m512 275.199219v55.800781h-35.199219l-36 109.300781c-5.402343 16.199219-15 30.601563-27.300781 42.296875-9.597656-11.097656-23.398438-17.699218-38.101562-17.699218-16.796876 0-32.398438 8.101562-41.996094 21.902343h-36.300782c-9.300781-13.203125-24.300781-21.601562-40.800781-21.902343h-.601562c-16.5.300781-31.800781 8.699218-41.097657 22.203124h-35.703124c-9.597657-13.800781-25.199219-22.203124-42.296876-22.203124-14.699218 0-28.5 6.601562-38.101562 17.699218-12.300781-11.699218-21.898438-26.097656-27.300781-42.296875l-36-109.300781h-35.199219v-30h82.300781l60 60h195.597657l53.101562-79.5v-46.199219zm0 0" fill="#68544f"/><path d="m512 275.199219v55.800781h-35.199219l-36 109.300781c-5.402343 16.199219-15 30.601563-27.300781 42.296875-9.597656-11.097656-23.398438-17.699218-38.101562-17.699218-16.796876 0-32.398438 8.101562-41.996094 21.902343h-36.300782c-9.300781-13.203125-24.300781-21.601562-40.800781-21.902343h-.300781v-103.898438h81.898438l53.101562-79.5v-46.199219zm0 0" fill="#53433f"/><path d="m512 449.898438v30h-16c-7.199219.300781-14.097656 3.300781-18.300781 9.300781-9.597657 14.398437-25.199219 22.800781-42.300781 22.800781-17.398438 0-33-8.402344-42.597657-22.800781-8.101562-12-27-12-35.101562 0-9.597657 14.398437-25.199219 22.800781-42.300781 22.800781-17.398438 0-32.996094-8.402344-42.597657-22.800781-3.898437-5.699219-9.902343-9-16.800781-9.300781-6.898438.300781-12.898438 3.601562-16.800781 9.300781-9.597657 14.398437-25.199219 22.800781-42.597657 22.800781-17.097656 0-32.699218-8.402344-42.300781-22.800781-8.097656-12-27-12-35.097656 0-9.601563 14.398437-25.203125 22.800781-42.601563 22.800781-17.097656 0-32.699218-8.402344-42.300781-22.800781-4.199219-6-12.398437-9.300781-18.996093-9.300781h-15.304688v-30h15c16.199219-.296876 34.601562 8.101562 44.199219 22.800781 8.101562 11.699219 27 11.699219 35.101562 0 9.597657-14.398438 25.199219-22.800781 42.300781-22.800781 17.398438 0 32.996094 8.402343 42.597657 22.800781 8.101562 11.699219 27 11.699219 35.097656 0 9.300781-14.101563 24.601563-22.5 41.402344-22.800781h.601562c16.796875.300781 32.097657 8.699218 41.398438 22.800781 8.097656 11.699219 27 11.699219 35.097656 0 9.601563-14.398438 25.203125-22.800781 42.601563-22.800781 17.097656 0 32.699218 8.402343 42.300781 22.800781 8.097656 11.699219 26.996093 11.699219 35.097656 0 9.601563-14.699219 26.101563-22.800781 43.5-22.800781zm0 0" fill="#e2e2e7"/><path d="m226 361c0 16.5-13.5 30-30 30s-30-13.5-30-30 13.5-30 30-30 30 13.5 30 30zm0 0" fill="#c6715a"/><path d="m226 361c0 16.5-13.5 30-30 30v-60c16.5 0 30 13.5 30 30zm0 0" fill="#b35f49"/><path d="m286 361c0 16.5-13.5 30-30 30s-30-13.5-30-30 13.5-30 30-30 30 13.5 30 30zm0 0" fill="#c6715a"/><path d="m286 361c0 16.5-13.5 30-30 30v-60c16.5 0 30 13.5 30 30zm0 0" fill="#b35f49"/><path d="m346 361c0 16.5-13.5 30-30 30s-30-13.5-30-30 13.5-30 30-30 30 13.5 30 30zm0 0" fill="#c6715a"/><path d="m346 361c0 16.5-13.5 30-30 30v-60c16.5 0 30 13.5 30 30zm0 0" fill="#b35f49"/><path d="m512 449.898438v30h-16c-7.199219.300781-14.097656 3.300781-18.300781 9.300781-9.597657 14.398437-25.199219 22.800781-42.300781 22.800781-17.398438 0-33-8.402344-42.597657-22.800781-8.101562-12-27-12-35.101562 0-9.597657 14.398437-25.199219 22.800781-42.300781 22.800781-17.398438 0-32.996094-8.402344-42.597657-22.800781-3.898437-5.699219-9.902343-9-16.800781-9.300781v-30h.300781c16.800781.300781 32.101563 8.699218 41.398438 22.800781 8.101562 11.699219 27 11.699219 35.101562 0 9.597657-14.398438 25.199219-22.800781 42.597657-22.800781 17.101562 0 32.703124 8.402343 42.300781 22.800781 8.101562 11.699219 27 11.699219 35.101562 0 9.597657-14.699219 26.097657-22.800781 43.5-22.800781zm0 0" fill="#d3d3d8"/><path d="m359.417969 39.289062-4.144531-8.289062h-60.59375l.328124 270h60.265626l4.144531-8.289062c39.667969-79.339844 39.667969-174.082032 0-253.421876zm0 0" fill="#f6a96c"/><path d="m295 301h-124.800781l-.300781-270h124.800781c45.300781 84 45.601562 185.699219.300781 270zm0 0" fill="#fed2a4"/><g fill="#ffbd86"><path d="m295 301h-39v-270h38.699219c45.300781 84 45.601562 185.699219.300781 270zm0 0"/><path d="m170.039062 31h-58.3125l10.855469 21.710938c35.464844 70.941406 35.464844 155.636718 0 226.578124l-10.855469 21.710938h58.328126c51.75-82.292969 52.335937-186.921875-.015626-270zm0 0"/></g></svg>