<svg id="Capa_1" enable-background="new 0 0 512 512" height="512" viewBox="0 0 512 512" width="512" xmlns="http://www.w3.org/2000/svg"><g><g><path d="m138.724 113.516v-79.587l5.639-2.893c19.955-10.236 39.461-5.233 56.673-.818 15.613 4.005 29.097 7.463 42.048.818l15.109-7.751v79.588l-5.639 2.893c-19.956 10.236-39.463 5.232-56.674.819-15.612-4.004-29.095-7.462-42.047-.819z" fill="#fd445f"/></g><g><path d="m241 0v324.563h15l6.079-146.894-6.079-177.669z" fill="#f2f6fc"/><path d="m256 0h15v324.563h-15z" fill="#dce1eb"/></g><g><path d="m37.81 309.316 18.506 128.773 199.684 1.402 23.371-64.691-23.371-65.484z" fill="#9f5f4e"/><path d="m256 309.316v130.175l136.15.956c32.941-15.218 57.999-43.813 68.746-78.454l16.344-52.677z" fill="#714437"/></g><g><g><path d="m210.431 434.664-38.669-152.819 29.084-7.359 41.999 165.314z" fill="#c8885e"/></g></g><g><g><g><path d="m255.993 431.935c-17.991 0-26.475-3.977-36.299-8.582-11.417-5.352-24.357-11.418-49.032-11.418-24.674 0-37.614 6.066-49.031 11.418-9.824 4.605-18.308 8.582-36.3 8.582s-26.476-3.977-36.3-8.582c-11.417-5.353-24.357-11.418-49.031-11.418v50.024l35.977 25.298h220.023l14.376-26.113-14.376-29.21c-.002 0-.004.001-.007.001z" fill="#6dabfc"/><path d="m462.965 423.352c-9.824 4.605-18.309 8.582-36.302 8.582s-26.479-3.977-36.303-8.582c-11.418-5.352-24.359-11.418-49.034-11.418s-37.616 6.066-49.033 11.418c-9.823 4.604-18.307 8.581-36.293 8.582v55.322h217.783l38.217-25.297v-50.024c-24.676 0-37.617 6.065-49.035 11.417z" fill="#6f79e2"/></g></g></g><g><path d="m127.039 275.581h30v202.962h-30z" fill="#c8885e" transform="matrix(.975 -.224 .224 .975 -80.936 41.454)"/></g><g><path d="m255.993 481.959c-17.991 0-26.475-3.977-36.299-8.582-11.417-5.352-24.357-11.418-49.032-11.418-24.674 0-37.614 6.066-49.031 11.418-9.824 4.605-18.308 8.582-36.3 8.582s-26.476-3.977-36.3-8.582c-11.417-5.353-24.357-11.418-49.031-11.418v50.041h256l14.376-14.104-14.376-15.938c-.002 0-.004.001-.007.001z" fill="#afd1fd"/><path d="m512 461.959c-24.676 0-37.617 6.066-49.035 11.418-9.824 4.605-18.309 8.582-36.302 8.582s-26.479-3.977-36.303-8.582c-11.418-5.352-24.359-11.418-49.034-11.418s-37.616 6.066-49.033 11.418c-9.823 4.604-18.307 8.581-36.293 8.582v30.041h256z" fill="#6dabfc"/></g><g><g><path d="m406.607 52.696c0 29.056 23.639 52.696 52.696 52.696l15.287-56.866-15.286-48.526c-29.057 0-52.697 23.639-52.697 52.696z" fill="#fed943"/></g><path d="m459.304 0v105.392c29.057 0 52.696-23.639 52.696-52.696s-23.639-52.696-52.696-52.696z" fill="#fcbe2c"/></g></g></svg>