<svg id="Capa_1" enable-background="new 0 0 512 512" height="512" viewBox="0 0 512 512" width="512" xmlns="http://www.w3.org/2000/svg"><g><path d="m278.805 56.449-127.85 24.883v180.192l127.851 24.884c18.051-75.59 18.051-154.369-.001-229.959z" fill="#ff9368"/><g><path d="m150.955 261.524 127.851 24.884c5.975-25.02 9.959-50.389 11.979-75.876l-139.83-9.072z" fill="#f00"/><path d="m290.784 132.325-139.83 9.072v60.064l139.83 9.072c2.063-26.03 2.063-52.18 0-78.208z" fill="#ff641a"/></g><g><g><g><path d="m135.955 55.311h30v298.907h-30z" fill="#895d3c"/></g></g></g><g><path d="m498.461 5.195-127.85 24.883v180.192l127.851 24.884c18.051-75.59 18.051-154.369-.001-229.959z" fill="#ff641a"/><g><path d="m370.611 210.27 127.851 24.884c5.975-25.02 9.959-50.389 11.979-75.876l-139.83-9.072z" fill="#c20010"/><path d="m510.44 81.071-139.83 9.072v60.064l139.83 9.072c2.063-26.03 2.063-52.18 0-78.208z" fill="#f00"/></g></g><g><g><path d="m355.61 0h30v322.211h-30z" fill="#64422a"/></g></g><g><g><path d="m341.28 296.007v44.469h-341.28v52.421l8 13.503c0 6.039-7.493 11.959-6.52 17.721 8.429 49.884 51.838 87.879 104.12 87.879h300.8c52.579 0 96.182-38.427 104.26-88.728.882-5.494-6.659-11.13-6.659-16.872l8-13.37v-97.023z" fill="#d0aa8e"/></g><g><path d="m341.28 296.007v44.469h-85.28v171.524h150.4c52.684 0 96.357-38.58 104.308-89.03.851-5.398-9.707-10.933-9.707-16.57l11-13.483v-96.91z" fill="#895d3c"/></g><path d="m0 393.141v13.259c0 5.698.457 11.288 1.326 16.741h259.546l2.145-30z" fill="#f3d6ae"/><path d="m256 393.141v30h254.674c.869-5.453 1.326-11.043 1.326-16.741v-13.259z" fill="#d0aa8e"/></g></g></svg>