<svg id="Capa_1" enable-background="new 0 0 512 512" height="512" viewBox="0 0 512 512" width="512" xmlns="http://www.w3.org/2000/svg"><g><path d="m169.21 226.005h30v89.321h-30z" fill="#997a5c"/><path d="m271.052 315.325h-15.052l-7.461-44.66 7.461-44.66h15.052z" fill="#806040"/><path d="m241.026 226.005h14.974v89.321h-14.974z" fill="#997a5c"/><path d="m312.79 226.005h30v89.321h-30z" fill="#806040"/><g><path d="m271.026 57.872h-15.026l-7.487-33.021 7.487-24.851h15.026z" fill="#806040"/></g><g><g><path d="m241 0h15v57.872h-15z" fill="#997a5c"/></g></g><path d="m512 318.52c0 51.25-41.55 91.57-92.8 91.57h-163.2l-20.787-109.8z" fill="#806040"/><path d="m376.37 249.68h-120.37l-29.979-106.85 29.979-107.97h120.37c26.182 68.273 25.492 146.517 0 214.82z" fill="#19805d"/><g><g><path d="m512 288.52-30 19.565v-40.57c0-13.297-5.179-25.799-14.581-35.201l-21.589-21.59v-55.83h30v43.404l12.802 12.802c15.069 15.068 23.368 35.104 23.368 56.415z" fill="#806040"/></g></g><path d="m256 34.86v214.82h-139.82c26.7-68.46 24.73-146.25 0-214.82z" fill="#24b383"/><g><path d="m307.17 138.83c0 28.21-22.96 51.17-51.17 51.17l-11.255-16.638 11.255-13.362c11.67 0 21.17-9.5 21.17-21.17s-9.5-21.17-21.17-21.17l-9.514-16.468 9.514-13.532c28.21 0 51.17 22.95 51.17 51.17z" fill="#24b383"/><path d="m234.83 138.83c0 11.67 9.5 21.17 21.17 21.17v30c-28.22 0-51.17-22.96-51.17-51.17 0-28.22 22.95-51.17 51.17-51.17v30c-11.67 0-21.17 9.5-21.17 21.17z" fill="#2ee66b"/></g><path d="m256 300.29v109.8h-256v-30h19.42c16.775 0 30.81-13.818 30.81-30.81 0-17.02-13.79-30.81-30.81-30.81h-19.42z" fill="#997a5c"/><path d="m512 288.52v30h-256l-9.514-17.538 9.514-12.462z" fill="#ff4d4d"/><path d="m256 288.52v30h-256v-90.73h30.05v60.73z" fill="#ff884d"/><g><path d="m37.774 416.584h168.511v29.999h-168.511z" fill="#fffbe6" transform="matrix(.501 -.865 .865 .501 -312.556 320.716)"/></g><g><path d="m106.998 416.583h168.511v30h-168.511z" fill="#fffbe6" transform="matrix(.501 -.865 .865 .501 -278.046 380.592)"/></g><g><path d="m176.598 416.584h168.511v29.999h-168.511z" fill="#fec" transform="matrix(.501 -.865 .865 .501 -243.353 440.82)"/></g><g><path d="m250.205 416.583h168.511v30h-168.511z" fill="#fec" transform="matrix(.501 -.865 .865 .501 -206.662 504.486)"/></g></g></svg>