<?xml version="1.0" encoding="iso-8859-1"?>
<!-- Generator: Adobe Illustrator 19.0.0, SVG Export Plug-In . SVG Version: 6.00 Build 0)  -->
<svg version="1.1" id="Layer_1" xmlns="http://www.w3.org/2000/svg" xmlns:xlink="http://www.w3.org/1999/xlink" x="0px" y="0px"
	 viewBox="0 0 512 512" style="enable-background:new 0 0 512 512;" xml:space="preserve">
<rect y="122.435" style="fill:#BCE4F9;" width="512" height="263.791"/>
<g>
	<rect x="256" y="122.435" style="fill:#7BCEFC;" width="256" height="263.791"/>
	<path style="fill:#7BCEFC;" d="M447.996,151.374c-20.334,0-31.305-6.105-40.121-11.011c-7.355-4.094-12.216-6.797-23.884-6.797
		c-11.667,0-16.526,2.705-23.881,6.797c-8.815,4.906-19.785,11.011-40.12,11.011c-20.333,0-31.303-6.105-40.117-11.011
		c-7.355-4.093-12.213-6.797-23.882-6.797c-11.665,0-16.524,2.704-23.878,6.797c-8.815,4.905-19.785,11.011-40.119,11.011
		s-31.303-6.105-40.119-11.011c-7.354-4.094-12.213-6.797-23.879-6.797c-11.667,0-16.526,2.705-23.881,6.797
		c-8.815,4.906-19.785,11.011-40.119,11.011c-20.332,0-31.302-6.105-40.117-11.011c-7.354-4.093-12.213-6.797-23.879-6.797v-33.391
		c20.333,0,31.303,6.106,40.119,11.011c7.354,4.094,12.212,6.797,23.878,6.797c11.667,0,16.526-2.705,23.881-6.797
		c8.815-4.906,19.785-11.011,40.119-11.011s31.303,6.105,40.119,11.011c7.354,4.094,12.213,6.797,23.879,6.797
		c11.666,0,16.525-2.705,23.879-6.797c8.815-4.906,19.785-11.011,40.117-11.011c20.333,0,31.304,6.105,40.12,11.011
		c7.354,4.094,12.213,6.797,23.879,6.797c11.667,0,16.528-2.705,23.883-6.797c8.815-4.906,19.785-11.011,40.119-11.011
		c20.334,0,31.305,6.105,40.121,11.011c7.355,4.094,12.216,6.797,23.884,6.797c11.668,0,16.529-2.705,23.884-6.797
		c8.815-4.906,19.787-11.011,40.121-11.011v33.391c-11.668,0-16.529,2.705-23.884,6.797
		C479.301,145.269,468.33,151.374,447.996,151.374z"/>
</g>
<path style="fill:#009DFF;" d="M447.996,281.6c-20.334,0-31.305-6.105-40.121-11.011c-7.355-4.094-12.216-6.797-23.884-6.797
	c-11.667,0-16.526,2.705-23.881,6.797c-8.815,4.906-19.785,11.011-40.12,11.011c-20.333,0-31.303-6.105-40.117-11.011
	c-7.355-4.093-12.213-6.797-23.882-6.797c-11.665,0-16.524,2.704-23.878,6.797c-8.815,4.905-19.785,11.011-40.119,11.011
	s-31.303-6.105-40.119-11.011c-7.354-4.094-12.213-6.797-23.879-6.797c-11.667,0-16.526,2.705-23.881,6.797
	C95.3,275.495,84.33,281.6,63.997,281.6c-20.332,0-31.302-6.105-40.117-11.011c-7.354-4.093-12.213-6.797-23.879-6.797V230.4
	c20.333,0,31.303,6.106,40.119,11.011c7.354,4.094,12.212,6.797,23.878,6.797c11.667,0,16.526-2.705,23.881-6.797
	c8.815-4.906,19.785-11.011,40.119-11.011s31.303,6.105,40.119,11.011c7.354,4.094,12.213,6.797,23.879,6.797
	c11.666,0,16.525-2.705,23.879-6.797c8.815-4.906,19.785-11.011,40.117-11.011c20.333,0,31.304,6.105,40.12,11.011
	c7.354,4.094,12.213,6.797,23.879,6.797c11.667,0,16.528-2.705,23.883-6.797c8.815-4.906,19.785-11.011,40.119-11.011
	c20.334,0,31.305,6.105,40.121,11.011c7.355,4.094,12.216,6.797,23.884,6.797c11.668,0,16.529-2.705,23.884-6.797
	c8.815-4.906,19.787-11.011,40.121-11.011v33.391c-11.668,0-16.529,2.705-23.884,6.797C479.301,275.495,468.33,281.6,447.996,281.6z
	"/>
<path style="fill:#0064E0;" d="M447.996,411.826c-20.334,0-31.305-6.105-40.121-11.011c-7.355-4.094-12.216-6.797-23.884-6.797
	c-11.667,0-16.526,2.705-23.881,6.797c-8.815,4.906-19.785,11.011-40.12,11.011c-20.333,0-31.303-6.105-40.117-11.011
	c-7.355-4.093-12.213-6.797-23.882-6.797c-11.665,0-16.524,2.704-23.878,6.797c-8.815,4.905-19.785,11.011-40.119,11.011
	s-31.303-6.105-40.119-11.011c-7.354-4.094-12.213-6.797-23.879-6.797c-11.667,0-16.526,2.705-23.881,6.797
	c-8.815,4.906-19.785,11.011-40.119,11.011c-20.332,0-31.302-6.105-40.117-11.011c-7.354-4.093-12.213-6.797-23.879-6.797v-33.391
	c20.333,0,31.303,6.106,40.119,11.011c7.354,4.094,12.212,6.797,23.878,6.797c11.667,0,16.526-2.705,23.881-6.797
	c8.815-4.906,19.785-11.011,40.119-11.011s31.303,6.105,40.119,11.011c7.354,4.094,12.213,6.797,23.879,6.797
	c11.666,0,16.525-2.705,23.879-6.797c8.815-4.906,19.785-11.011,40.117-11.011c20.333,0,31.304,6.105,40.12,11.011
	c7.354,4.094,12.213,6.797,23.879,6.797c11.667,0,16.528-2.705,23.883-6.797c8.815-4.906,19.785-11.011,40.119-11.011
	c20.334,0,31.305,6.105,40.121,11.011c7.355,4.094,12.216,6.797,23.884,6.797c11.668,0,16.529-2.705,23.884-6.797
	c8.815-4.906,19.787-11.011,40.121-11.011v33.391c-11.668,0-16.529,2.705-23.884,6.797
	C479.301,405.721,468.33,411.826,447.996,411.826z"/>
<path style="fill:#009DFF;" d="M319.99,151.374c20.334,0,31.304-6.105,40.12-11.011c7.355-4.093,12.215-6.797,23.881-6.797
	c11.668,0,16.529,2.705,23.884,6.797c8.815,4.905,19.787,11.011,40.121,11.011c20.334,0,31.305-6.105,40.121-11.011
	c7.355-4.093,12.216-6.797,23.884-6.797v-33.391c-20.334,0-31.305,6.105-40.121,11.011c-7.355,4.094-12.216,6.797-23.884,6.797
	c-11.668,0-16.529-2.705-23.884-6.797c-8.815-4.906-19.787-11.011-40.121-11.011c-20.333,0-31.303,6.105-40.119,11.011
	c-7.355,4.093-12.215,6.797-23.883,6.797c-11.666,0-16.525-2.704-23.879-6.797c-8.814-4.905-19.784-11.009-40.111-11.011v33.391
	c11.661,0.001,16.52,2.706,23.873,6.797C288.687,145.269,299.658,151.374,319.99,151.374z"/>
<path style="fill:#0064E0;" d="M279.873,270.589c8.814,4.906,19.784,11.011,40.117,11.011c20.334,0,31.304-6.105,40.12-11.011
	c7.355-4.093,12.215-6.797,23.881-6.797c11.668,0,16.529,2.705,23.884,6.797c8.815,4.905,19.787,11.011,40.121,11.011
	c20.334,0,31.305-6.105,40.121-11.011c7.355-4.093,12.216-6.797,23.884-6.797V230.4c-20.334,0-31.305,6.105-40.121,11.011
	c-7.355,4.094-12.216,6.797-23.884,6.797c-11.668,0-16.529-2.705-23.884-6.797c-8.815-4.905-19.787-11.011-40.121-11.011
	c-20.333,0-31.303,6.105-40.119,11.011c-7.355,4.093-12.215,6.797-23.883,6.797c-11.666,0-16.525-2.704-23.879-6.797
	c-8.814-4.905-19.784-11.009-40.111-11.011v33.391C267.661,263.792,272.52,266.497,279.873,270.589z"/>
<path style="fill:#004EAD;" d="M279.873,400.815c8.814,4.906,19.784,11.011,40.117,11.011c20.334,0,31.304-6.105,40.12-11.011
	c7.355-4.093,12.215-6.797,23.881-6.797c11.668,0,16.529,2.705,23.884,6.797c8.815,4.905,19.787,11.011,40.121,11.011
	c20.334,0,31.305-6.105,40.121-11.011c7.355-4.093,12.216-6.797,23.884-6.797v-33.391c-20.334,0-31.305,6.105-40.121,11.011
	c-7.355,4.094-12.216,6.797-23.884,6.797c-11.668,0-16.529-2.705-23.884-6.797c-8.815-4.905-19.787-11.011-40.121-11.011
	c-20.333,0-31.303,6.105-40.119,11.011c-7.355,4.093-12.215,6.797-23.883,6.797c-11.666,0-16.525-2.704-23.879-6.797
	c-8.814-4.905-19.784-11.009-40.111-11.011v33.391C267.661,394.018,272.52,396.723,279.873,400.815z"/>
<g>
</g>
<g>
</g>
<g>
</g>
<g>
</g>
<g>
</g>
<g>
</g>
<g>
</g>
<g>
</g>
<g>
</g>
<g>
</g>
<g>
</g>
<g>
</g>
<g>
</g>
<g>
</g>
<g>
</g>
</svg>
